<svg width="16" height="16" viewBox="0 0 16 16" fill="none" xmlns="http://www.w3.org/2000/svg">
<g id="fluent-mdl2:compare">
<path id="Vector" d="M12.5234 2L14.1953 7H15V8H14.8281C14.724 8.29688 14.5781 8.56771 14.3906 8.8125C14.2031 9.05729 13.9844 9.26823 13.7344 9.44531C13.4844 9.6224 13.2135 9.75781 12.9219 9.85156C12.6302 9.94531 12.3229 9.99479 12 10C11.6823 10 11.3776 9.95312 11.0859 9.85938C10.7943 9.76562 10.5234 9.63021 10.2734 9.45312C10.0234 9.27604 9.80469 9.0651 9.61719 8.82031C9.42969 8.57552 9.28125 8.30208 9.17188 8H9V7H9.80469L11.4766 2H8V13.0156C8.86979 13.0729 9.69271 13.2682 10.4688 13.6016C11.2448 13.9349 11.9557 14.401 12.6016 15H14V16H1V15H2.39844C3.03906 14.4062 3.7474 13.9427 4.52344 13.6094C5.29948 13.276 6.125 13.0781 7 13.0156V2H3.52344L5.19531 7H6V8H5.82812C5.72396 8.29688 5.57812 8.56771 5.39062 8.8125C5.20312 9.05729 4.98438 9.26823 4.73438 9.44531C4.48438 9.6224 4.21354 9.75781 3.92188 9.85156C3.63021 9.94531 3.32292 9.99479 3 10C2.68229 10 2.3776 9.95312 2.08594 9.85938C1.79427 9.76562 1.52344 9.63021 1.27344 9.45312C1.02344 9.27604 0.804688 9.0651 0.617188 8.82031C0.429688 8.57552 0.28125 8.30208 0.171875 8H0V7H0.804688L2.47656 2H0V1H7V0H8V1H15V2H12.5234ZM3 3.57812L1.85938 7H4.14062L3 3.57812ZM3 9C3.35938 9 3.69271 8.91146 4 8.73438C4.30729 8.55729 4.55208 8.3125 4.73438 8H1.26562C1.44792 8.3125 1.69271 8.55729 2 8.73438C2.30729 8.91146 2.64062 9 3 9ZM10.9688 15C10.4479 14.6719 9.89323 14.4245 9.30469 14.2578C8.71615 14.0911 8.11458 14.0052 7.5 14C6.88542 14 6.28385 14.0833 5.69531 14.25C5.10677 14.4167 4.55208 14.6667 4.03125 15H10.9688ZM12 3.57812L10.8594 7H13.1406L12 3.57812ZM12 9C12.3594 9 12.6927 8.91146 13 8.73438C13.3073 8.55729 13.5521 8.3125 13.7344 8H10.2656C10.4479 8.3125 10.6927 8.55729 11 8.73438C11.3073 8.91146 11.6406 9 12 9Z" fill="white"/>
</g>
</svg>
