<svg width="81" height="80" viewBox="0 0 81 80" fill="none" xmlns="http://www.w3.org/2000/svg">
<rect x="0.74585" width="80" height="80" rx="40" fill="#ED008C"/>
<path d="M51.9958 32.5V51.25C51.9958 51.7676 51.8982 52.251 51.7029 52.7002C51.5076 53.1494 51.239 53.5449 50.8972 53.8867C50.5554 54.2285 50.155 54.4971 49.696 54.6924C49.2371 54.8877 48.7537 54.9902 48.2458 55H31.3708C30.8533 55 30.3699 54.9023 29.9207 54.707C29.4714 54.5117 29.0759 54.2432 28.7341 53.9014C28.3923 53.5596 28.1238 53.1641 27.9285 52.7148C27.7332 52.2656 27.6306 51.7773 27.6208 51.25V32.5H31.3708V30.625C31.3708 29.8535 31.5173 29.126 31.8103 28.4424C32.1033 27.7588 32.5085 27.1631 33.0261 26.6553C33.5437 26.1475 34.1394 25.7471 34.8132 25.4541C35.4871 25.1611 36.2146 25.0098 36.9958 25C38.0115 25 38.9539 25.2539 39.823 25.7617C40.6921 25.2539 41.6248 25 42.6208 25C43.3923 25 44.1199 25.1465 44.8035 25.4395C45.4871 25.7324 46.0828 26.1377 46.5906 26.6553C47.0984 27.1729 47.4988 27.7686 47.7917 28.4424C48.0847 29.1162 48.2361 29.8438 48.2458 30.625V32.5H51.9958ZM46.3708 30.625C46.3708 30.1172 46.2732 29.6338 46.0779 29.1748C45.8826 28.7158 45.614 28.3203 45.2722 27.9883C44.9304 27.6562 44.53 27.3877 44.071 27.1826C43.6121 26.9775 43.1287 26.875 42.6208 26.875C42.1814 26.875 41.7664 26.9482 41.3757 27.0947C41.6589 27.4463 41.8835 27.793 42.0496 28.1348C42.2156 28.4766 42.3376 28.8184 42.4158 29.1602C42.4939 29.502 42.5476 29.8486 42.5769 30.2002C42.6062 30.5518 42.6208 30.9277 42.6208 31.3281V32.5H46.3708V30.625ZM33.2458 32.5H40.7458V30.625C40.7458 30.1172 40.6482 29.6338 40.4529 29.1748C40.2576 28.7158 39.989 28.3203 39.6472 27.9883C39.3054 27.6562 38.905 27.3877 38.446 27.1826C37.9871 26.9775 37.5037 26.875 36.9958 26.875C36.4783 26.875 35.9949 26.9727 35.5457 27.168C35.0964 27.3633 34.7009 27.6318 34.3591 27.9736C34.0173 28.3154 33.7488 28.7158 33.5535 29.1748C33.3582 29.6338 33.2556 30.1172 33.2458 30.625V32.5ZM44.9939 53.125C44.6619 52.5391 44.4958 51.9141 44.4958 51.25V34.375H29.4958V51.25C29.4958 51.5137 29.5447 51.7578 29.6423 51.9824C29.74 52.207 29.8718 52.4023 30.0378 52.5684C30.2039 52.7344 30.4041 52.8711 30.6384 52.9785C30.8728 53.0859 31.1169 53.1348 31.3708 53.125H44.9939ZM50.1208 34.375H46.3708V51.25C46.3708 51.5137 46.4197 51.7578 46.5173 51.9824C46.615 52.207 46.7468 52.4023 46.9128 52.5684C47.0789 52.7344 47.2791 52.8711 47.5134 52.9785C47.7478 53.0859 47.9919 53.1348 48.2458 53.125C48.5095 53.125 48.7537 53.0762 48.9783 52.9785C49.2029 52.8809 49.3982 52.749 49.5642 52.583C49.7302 52.417 49.8669 52.2168 49.9744 51.9824C50.0818 51.748 50.1306 51.5039 50.1208 51.25V34.375Z" fill="white"/>
</svg>
