<svg width="89" height="88" viewBox="0 0 89 88" fill="none" xmlns="http://www.w3.org/2000/svg">
<g filter="url(#filter0_d_208_71)">
<rect x="4.41235" width="80" height="80" rx="40" fill="#E10CFF"/>
<path d="M41.079 56.5V53.5H29.4124V26.5H41.079V23.5H44.4124V56.5H41.079ZM32.7457 50.5H41.079V47.5H36.079V44.5H41.079V41.5H36.079V38.5H41.079V35.5H36.079V32.5H41.079V29.5H32.7457V50.5ZM47.7457 29.5V26.5H59.4124V53.5H47.7457V50.5H56.079V29.5H47.7457ZM47.7457 41.5V38.5H52.7457V41.5H47.7457ZM47.7457 35.5V32.5H52.7457V35.5H47.7457Z" fill="white"/>
</g>
<defs>
<filter id="filter0_d_208_71" x="0.412354" y="0" width="88" height="88" filterUnits="userSpaceOnUse" color-interpolation-filters="sRGB">
<feFlood flood-opacity="0" result="BackgroundImageFix"/>
<feColorMatrix in="SourceAlpha" type="matrix" values="0 0 0 0 0 0 0 0 0 0 0 0 0 0 0 0 0 0 127 0" result="hardAlpha"/>
<feOffset dy="4"/>
<feGaussianBlur stdDeviation="2"/>
<feComposite in2="hardAlpha" operator="out"/>
<feColorMatrix type="matrix" values="0 0 0 0 0 0 0 0 0 0 0 0 0 0 0 0 0 0 0.25 0"/>
<feBlend mode="normal" in2="BackgroundImageFix" result="effect1_dropShadow_208_71"/>
<feBlend mode="normal" in="SourceGraphic" in2="effect1_dropShadow_208_71" result="shape"/>
</filter>
</defs>
</svg>
