<svg xmlns="http://www.w3.org/2000/svg" width="17" height="17" viewBox="0 0 17 17" fill="none">
  <path d="M11.6488 14.415V13.0817C11.6488 12.3745 11.3678 11.6962 10.8677 11.1961C10.3676 10.696 9.68934 10.415 8.9821 10.415H4.9821C4.27485 10.415 3.59658 10.696 3.09648 11.1961C2.59638 11.6962 2.31543 12.3745 2.31543 13.0817V14.415" stroke="#E10CFF" stroke-width="1.33333" stroke-linecap="round" stroke-linejoin="round"/>
  <path d="M6.9821 7.74837C8.45486 7.74837 9.64876 6.55447 9.64876 5.08171C9.64876 3.60895 8.45486 2.41504 6.9821 2.41504C5.50934 2.41504 4.31543 3.60895 4.31543 5.08171C4.31543 6.55447 5.50934 7.74837 6.9821 7.74837Z" stroke="#E10CFF" stroke-width="1.33333" stroke-linecap="round" stroke-linejoin="round"/>
  <path d="M13.6494 5.74838V9.74838" stroke="#E10CFF" stroke-width="1.33333" stroke-linecap="round" stroke-linejoin="round"/>
  <path d="M15.6494 7.74838H11.6494" stroke="#E10CFF" stroke-width="1.33333" stroke-linecap="round" stroke-linejoin="round"/>
</svg>