<svg xmlns="http://www.w3.org/2000/svg" width="34" height="34" viewBox="0 0 34 34" fill="none">
  <path d="M22.666 22.6666L26.916 11.3333L31.166 22.6666C29.9335 23.5875 28.446 24.0833 26.916 24.0833C25.386 24.0833 23.8985 23.5875 22.666 22.6666Z" stroke="white" stroke-width="3" stroke-linecap="round" stroke-linejoin="round"/>
  <path d="M2.83398 22.6666L7.08398 11.3333L11.334 22.6666C10.1015 23.5875 8.61398 24.0833 7.08398 24.0833C5.55398 24.0833 4.06648 23.5875 2.83398 22.6666Z" stroke="white" stroke-width="3" stroke-linecap="round" stroke-linejoin="round"/>
  <path d="M9.91602 29.75H24.0827" stroke="white" stroke-width="3" stroke-linecap="round" stroke-linejoin="round"/>
  <path d="M17 4.25V29.75" stroke="white" stroke-width="3" stroke-linecap="round" stroke-linejoin="round"/>
  <path d="M4.25 9.91665H7.08333C9.91667 9.91665 14.1667 8.49998 17 7.08331C19.8333 8.49998 24.0833 9.91665 26.9167 9.91665H29.75" stroke="white" stroke-width="3" stroke-linecap="round" stroke-linejoin="round"/>
</svg>