<svg width="81" height="80" viewBox="0 0 81 80" fill="none" xmlns="http://www.w3.org/2000/svg">
<rect x="0.0791016" width="80" height="80" rx="40" fill="#B33974"/>
<path d="M52.0791 34.4737H43.6611L45.3456 29.1574C45.6486 28.1974 45.4956 27.1332 44.9331 26.3121C44.3706 25.4911 43.4586 25 42.4971 25H40.0791C39.6336 25 39.2121 25.2084 38.9256 25.5684L31.8756 34.4737H28.0791C26.4246 34.4737 25.0791 35.89 25.0791 37.6316V51.8421C25.0791 53.5837 26.4246 55 28.0791 55H48.0396C48.6499 54.9979 49.2453 54.8008 49.7469 54.4349C50.2486 54.0689 50.6329 53.5513 50.8491 52.9505L54.9846 41.3437C55.0474 41.1664 55.0794 40.9787 55.0791 40.7895V37.6316C55.0791 35.89 53.7336 34.4737 52.0791 34.4737ZM28.0791 37.6316H31.0791V51.8421H28.0791V37.6316ZM52.0791 40.5037L48.0396 51.8421H34.0791V36.6242L40.7811 28.1579H42.5001L40.1571 35.5521C40.081 35.7894 40.0598 36.0425 40.0952 36.2901C40.1306 36.5378 40.2216 36.7731 40.3606 36.9764C40.4996 37.1797 40.6827 37.3452 40.8946 37.4591C41.1065 37.573 41.3411 37.6322 41.5791 37.6316H52.0791V40.5037Z" fill="white"/>
</svg>
