<svg width="156" height="91" viewBox="0 0 156 91" fill="none" xmlns="http://www.w3.org/2000/svg">
<path d="M26.576 54.672C23.4773 54.672 20.6213 54.1867 18.008 53.216C15.432 52.208 13.1733 50.7893 11.232 48.96C9.328 47.1307 7.83467 44.984 6.752 42.52C5.70667 40.056 5.184 37.3493 5.184 34.4C5.184 31.4507 5.70667 28.744 6.752 26.28C7.83467 23.816 9.34667 21.6693 11.288 19.84C13.2293 18.0107 15.5067 16.6107 18.12 15.64C20.7333 14.632 23.608 14.128 26.744 14.128C30.216 14.128 33.3333 14.7067 36.096 15.864C38.896 17.0213 41.248 18.7013 43.152 20.904L37.328 26.28C35.9093 24.7867 34.36 23.6853 32.68 22.976C31 22.2293 29.1707 21.856 27.192 21.856C25.288 21.856 23.552 22.1547 21.984 22.752C20.416 23.3493 19.0533 24.208 17.896 25.328C16.776 26.448 15.8987 27.7733 15.264 29.304C14.6667 30.8347 14.368 32.5333 14.368 34.4C14.368 36.2293 14.6667 37.9093 15.264 39.44C15.8987 40.9707 16.776 42.3147 17.896 43.472C19.0533 44.592 20.3973 45.4507 21.928 46.048C23.496 46.6453 25.2133 46.944 27.08 46.944C28.872 46.944 30.608 46.664 32.288 46.104C34.0053 45.5067 35.6667 44.5173 37.272 43.136L42.424 49.688C40.296 51.2933 37.8133 52.5253 34.976 53.384C32.176 54.2427 29.376 54.672 26.576 54.672ZM34.136 48.512V33.784H42.424V49.688L34.136 48.512ZM50.2351 54V12.448H58.9711V54H50.2351ZM67.0789 54V23.872H75.8149V54H67.0789ZM71.4469 19.672C69.8415 19.672 68.5349 19.2053 67.5269 18.272C66.5189 17.3387 66.0149 16.1813 66.0149 14.8C66.0149 13.4187 66.5189 12.2613 67.5269 11.328C68.5349 10.3947 69.8415 9.928 71.4469 9.928C73.0522 9.928 74.3589 10.376 75.3669 11.272C76.3749 12.1307 76.8789 13.2507 76.8789 14.632C76.8789 16.088 76.3749 17.3013 75.3669 18.272C74.3962 19.2053 73.0895 19.672 71.4469 19.672ZM96.2426 54.448C92.696 54.448 89.9333 53.552 87.9546 51.76C85.976 49.9307 84.9866 47.224 84.9866 43.64V17.208H93.7226V43.528C93.7226 44.7973 94.0586 45.7867 94.7306 46.496C95.4026 47.168 96.3173 47.504 97.4746 47.504C98.856 47.504 100.032 47.1307 101.003 46.384L103.355 52.544C102.459 53.1787 101.376 53.664 100.107 54C98.8746 54.2987 97.5866 54.448 96.2426 54.448ZM80.3386 31.264V24.544H101.227V31.264H80.3386ZM119.922 54.448C116.376 54.448 113.613 53.552 111.634 51.76C109.656 49.9307 108.666 47.224 108.666 43.64V17.208H117.402V43.528C117.402 44.7973 117.738 45.7867 118.41 46.496C119.082 47.168 119.997 47.504 121.154 47.504C122.536 47.504 123.712 47.1307 124.682 46.384L127.034 52.544C126.138 53.1787 125.056 53.664 123.786 54C122.554 54.2987 121.266 54.448 119.922 54.448ZM104.018 31.264V24.544H124.906V31.264H104.018ZM131.938 54V23.872H140.282V32.384L139.106 29.92C140.002 27.792 141.44 26.1867 143.418 25.104C145.397 23.984 147.805 23.424 150.642 23.424V31.488C150.269 31.4507 149.933 31.432 149.634 31.432C149.336 31.3947 149.018 31.376 148.682 31.376C146.293 31.376 144.352 32.0667 142.858 33.448C141.402 34.792 140.674 36.9013 140.674 39.776V54H131.938Z" fill="#ED008C"/>
<path d="M2.33827 80.636C2.55427 80.26 2.87427 79.948 3.29827 79.7C3.73027 79.444 4.23027 79.316 4.79827 79.316C5.38227 79.316 5.91027 79.456 6.38227 79.736C6.86227 80.016 7.23827 80.412 7.51027 80.924C7.78227 81.428 7.91827 82.016 7.91827 82.688C7.91827 83.352 7.78227 83.944 7.51027 84.464C7.23827 84.984 6.86227 85.388 6.38227 85.676C5.91027 85.964 5.38227 86.108 4.79827 86.108C4.23827 86.108 3.74227 85.984 3.31027 85.736C2.88627 85.48 2.56227 85.164 2.33827 84.788V89.12H1.24627V79.424H2.33827V80.636ZM6.80227 82.688C6.80227 82.192 6.70227 81.76 6.50227 81.392C6.30227 81.024 6.03027 80.744 5.68627 80.552C5.35027 80.36 4.97827 80.264 4.57027 80.264C4.17027 80.264 3.79827 80.364 3.45427 80.564C3.11827 80.756 2.84627 81.04 2.63827 81.416C2.43827 81.784 2.33827 82.212 2.33827 82.7C2.33827 83.196 2.43827 83.632 2.63827 84.008C2.84627 84.376 3.11827 84.66 3.45427 84.86C3.79827 85.052 4.17027 85.148 4.57027 85.148C4.97827 85.148 5.35027 85.052 5.68627 84.86C6.03027 84.66 6.30227 84.376 6.50227 84.008C6.70227 83.632 6.80227 83.192 6.80227 82.688ZM12.2236 86.108C11.6076 86.108 11.0476 85.968 10.5436 85.688C10.0476 85.408 9.65564 85.012 9.36764 84.5C9.08764 83.98 8.94764 83.38 8.94764 82.7C8.94764 82.028 9.09164 81.436 9.37964 80.924C9.67564 80.404 10.0756 80.008 10.5796 79.736C11.0836 79.456 11.6476 79.316 12.2716 79.316C12.8956 79.316 13.4596 79.456 13.9636 79.736C14.4676 80.008 14.8636 80.4 15.1516 80.912C15.4476 81.424 15.5956 82.02 15.5956 82.7C15.5956 83.38 15.4436 83.98 15.1396 84.5C14.8436 85.012 14.4396 85.408 13.9276 85.688C13.4156 85.968 12.8476 86.108 12.2236 86.108ZM12.2236 85.148C12.6156 85.148 12.9836 85.056 13.3276 84.872C13.6716 84.688 13.9476 84.412 14.1556 84.044C14.3716 83.676 14.4796 83.228 14.4796 82.7C14.4796 82.172 14.3756 81.724 14.1676 81.356C13.9596 80.988 13.6876 80.716 13.3516 80.54C13.0156 80.356 12.6516 80.264 12.2596 80.264C11.8596 80.264 11.4916 80.356 11.1556 80.54C10.8276 80.716 10.5636 80.988 10.3636 81.356C10.1636 81.724 10.0636 82.172 10.0636 82.7C10.0636 83.236 10.1596 83.688 10.3516 84.056C10.5516 84.424 10.8156 84.7 11.1436 84.884C11.4716 85.06 11.8316 85.148 12.2236 85.148ZM25.7914 79.424L23.7394 86H22.6114L21.0274 80.78L19.4434 86H18.3154L16.2514 79.424H17.3674L18.8794 84.944L20.5114 79.424H21.6274L23.2234 84.956L24.7114 79.424H25.7914ZM32.8752 82.46C32.8752 82.668 32.8632 82.888 32.8392 83.12H27.5832C27.6232 83.768 27.8432 84.276 28.2432 84.644C28.6512 85.004 29.1432 85.184 29.7192 85.184C30.1912 85.184 30.5832 85.076 30.8952 84.86C31.2152 84.636 31.4392 84.34 31.5672 83.972H32.7432C32.5672 84.604 32.2152 85.12 31.6872 85.52C31.1592 85.912 30.5032 86.108 29.7192 86.108C29.0952 86.108 28.5352 85.968 28.0392 85.688C27.5512 85.408 27.1672 85.012 26.8872 84.5C26.6072 83.98 26.4672 83.38 26.4672 82.7C26.4672 82.02 26.6032 81.424 26.8752 80.912C27.1472 80.4 27.5272 80.008 28.0152 79.736C28.5112 79.456 29.0792 79.316 29.7192 79.316C30.3432 79.316 30.8952 79.452 31.3752 79.724C31.8552 79.996 32.2232 80.372 32.4792 80.852C32.7432 81.324 32.8752 81.86 32.8752 82.46ZM31.7472 82.232C31.7472 81.816 31.6552 81.46 31.4712 81.164C31.2872 80.86 31.0352 80.632 30.7152 80.48C30.4032 80.32 30.0552 80.24 29.6712 80.24C29.1192 80.24 28.6472 80.416 28.2552 80.768C27.8712 81.12 27.6512 81.608 27.5952 82.232H31.7472ZM35.4086 80.492C35.6006 80.116 35.8726 79.824 36.2246 79.616C36.5846 79.408 37.0206 79.304 37.5326 79.304V80.432H37.2446C36.0206 80.432 35.4086 81.096 35.4086 82.424V86H34.3166V79.424H35.4086V80.492ZM44.7931 82.46C44.7931 82.668 44.7811 82.888 44.7571 83.12H39.5011C39.5411 83.768 39.7611 84.276 40.1611 84.644C40.5691 85.004 41.0611 85.184 41.6371 85.184C42.1091 85.184 42.5011 85.076 42.8131 84.86C43.1331 84.636 43.3571 84.34 43.4851 83.972H44.6611C44.4851 84.604 44.1331 85.12 43.6051 85.52C43.0771 85.912 42.4211 86.108 41.6371 86.108C41.0131 86.108 40.4531 85.968 39.9571 85.688C39.4691 85.408 39.0851 85.012 38.8051 84.5C38.5251 83.98 38.3851 83.38 38.3851 82.7C38.3851 82.02 38.5211 81.424 38.7931 80.912C39.0651 80.4 39.4451 80.008 39.9331 79.736C40.4291 79.456 40.9971 79.316 41.6371 79.316C42.2611 79.316 42.8131 79.452 43.2931 79.724C43.7731 79.996 44.1411 80.372 44.3971 80.852C44.6611 81.324 44.7931 81.86 44.7931 82.46ZM43.6651 82.232C43.6651 81.816 43.5731 81.46 43.3891 81.164C43.2051 80.86 42.9531 80.632 42.6331 80.48C42.3211 80.32 41.9731 80.24 41.5891 80.24C41.0371 80.24 40.5651 80.416 40.1731 80.768C39.7891 81.12 39.5691 81.608 39.5131 82.232H43.6651ZM45.8265 82.688C45.8265 82.016 45.9625 81.428 46.2345 80.924C46.5065 80.412 46.8785 80.016 47.3505 79.736C47.8305 79.456 48.3665 79.316 48.9585 79.316C49.4705 79.316 49.9465 79.436 50.3865 79.676C50.8265 79.908 51.1625 80.216 51.3945 80.6V77.12H52.4985V86H51.3945V84.764C51.1785 85.156 50.8585 85.48 50.4345 85.736C50.0105 85.984 49.5145 86.108 48.9465 86.108C48.3625 86.108 47.8305 85.964 47.3505 85.676C46.8785 85.388 46.5065 84.984 46.2345 84.464C45.9625 83.944 45.8265 83.352 45.8265 82.688ZM51.3945 82.7C51.3945 82.204 51.2945 81.772 51.0945 81.404C50.8945 81.036 50.6225 80.756 50.2785 80.564C49.9425 80.364 49.5705 80.264 49.1625 80.264C48.7545 80.264 48.3825 80.36 48.0465 80.552C47.7105 80.744 47.4425 81.024 47.2425 81.392C47.0425 81.76 46.9425 82.192 46.9425 82.688C46.9425 83.192 47.0425 83.632 47.2425 84.008C47.4425 84.376 47.7105 84.66 48.0465 84.86C48.3825 85.052 48.7545 85.148 49.1625 85.148C49.5705 85.148 49.9425 85.052 50.2785 84.86C50.6225 84.66 50.8945 84.376 51.0945 84.008C51.2945 83.632 51.3945 83.196 51.3945 82.7ZM58.6351 80.648C58.8591 80.256 59.1871 79.936 59.6191 79.688C60.0511 79.44 60.5431 79.316 61.0951 79.316C61.6871 79.316 62.2191 79.456 62.6911 79.736C63.1631 80.016 63.5351 80.412 63.8071 80.924C64.0791 81.428 64.2151 82.016 64.2151 82.688C64.2151 83.352 64.0791 83.944 63.8071 84.464C63.5351 84.984 63.1591 85.388 62.6791 85.676C62.2071 85.964 61.6791 86.108 61.0951 86.108C60.5271 86.108 60.0271 85.984 59.5951 85.736C59.1711 85.488 58.8511 85.172 58.6351 84.788V86H57.5431V77.12H58.6351V80.648ZM63.0991 82.688C63.0991 82.192 62.9991 81.76 62.7991 81.392C62.5991 81.024 62.3271 80.744 61.9831 80.552C61.6471 80.36 61.2751 80.264 60.8671 80.264C60.4671 80.264 60.0951 80.364 59.7511 80.564C59.4151 80.756 59.1431 81.04 58.9351 81.416C58.7351 81.784 58.6351 82.212 58.6351 82.7C58.6351 83.196 58.7351 83.632 58.9351 84.008C59.1431 84.376 59.4151 84.66 59.7511 84.86C60.0951 85.052 60.4671 85.148 60.8671 85.148C61.2751 85.148 61.6471 85.052 61.9831 84.86C62.3271 84.66 62.5991 84.376 62.7991 84.008C62.9991 83.632 63.0991 83.192 63.0991 82.688ZM71.3165 79.424L67.3565 89.096H66.2285L67.5245 85.928L64.8725 79.424H66.0845L68.1485 84.752L70.1885 79.424H71.3165ZM82.0575 77.636V86H80.9655V82.208H76.7055V86H75.6135V77.636H76.7055V81.308H80.9655V77.636H82.0575ZM83.514 82.688C83.514 82.016 83.65 81.428 83.922 80.924C84.194 80.412 84.566 80.016 85.038 79.736C85.518 79.456 86.05 79.316 86.634 79.316C87.21 79.316 87.71 79.44 88.134 79.688C88.558 79.936 88.874 80.248 89.082 80.624V79.424H90.186V86H89.082V84.776C88.866 85.16 88.542 85.48 88.11 85.736C87.686 85.984 87.19 86.108 86.622 86.108C86.038 86.108 85.51 85.964 85.038 85.676C84.566 85.388 84.194 84.984 83.922 84.464C83.65 83.944 83.514 83.352 83.514 82.688ZM89.082 82.7C89.082 82.204 88.982 81.772 88.782 81.404C88.582 81.036 88.31 80.756 87.966 80.564C87.63 80.364 87.258 80.264 86.85 80.264C86.442 80.264 86.07 80.36 85.734 80.552C85.398 80.744 85.13 81.024 84.93 81.392C84.73 81.76 84.63 82.192 84.63 82.688C84.63 83.192 84.73 83.632 84.93 84.008C85.13 84.376 85.398 84.66 85.734 84.86C86.07 85.052 86.442 85.148 86.85 85.148C87.258 85.148 87.63 85.052 87.966 84.86C88.31 84.66 88.582 84.376 88.782 84.008C88.982 83.632 89.082 83.196 89.082 82.7ZM93.1234 77.12V86H92.0314V77.12H93.1234ZM94.5765 82.7C94.5765 82.02 94.7125 81.428 94.9845 80.924C95.2565 80.412 95.6325 80.016 96.1125 79.736C96.6005 79.456 97.1565 79.316 97.7805 79.316C98.5885 79.316 99.2525 79.512 99.7725 79.904C100.301 80.296 100.649 80.84 100.817 81.536H99.6405C99.5285 81.136 99.3085 80.82 98.9805 80.588C98.6605 80.356 98.2605 80.24 97.7805 80.24C97.1565 80.24 96.6525 80.456 96.2685 80.888C95.8845 81.312 95.6925 81.916 95.6925 82.7C95.6925 83.492 95.8845 84.104 96.2685 84.536C96.6525 84.968 97.1565 85.184 97.7805 85.184C98.2605 85.184 98.6605 85.072 98.9805 84.848C99.3005 84.624 99.5205 84.304 99.6405 83.888H100.817C100.641 84.56 100.289 85.1 99.7605 85.508C99.2325 85.908 98.5725 86.108 97.7805 86.108C97.1565 86.108 96.6005 85.968 96.1125 85.688C95.6325 85.408 95.2565 85.012 94.9845 84.5C94.7125 83.988 94.5765 83.388 94.5765 82.7ZM107.938 79.424L103.978 89.096H102.85L104.146 85.928L101.494 79.424H102.706L104.77 84.752L106.81 79.424H107.938ZM111.903 86.108C111.287 86.108 110.727 85.968 110.223 85.688C109.727 85.408 109.335 85.012 109.047 84.5C108.767 83.98 108.627 83.38 108.627 82.7C108.627 82.028 108.771 81.436 109.059 80.924C109.355 80.404 109.755 80.008 110.259 79.736C110.763 79.456 111.327 79.316 111.951 79.316C112.575 79.316 113.139 79.456 113.643 79.736C114.147 80.008 114.543 80.4 114.831 80.912C115.127 81.424 115.275 82.02 115.275 82.7C115.275 83.38 115.123 83.98 114.819 84.5C114.523 85.012 114.119 85.408 113.607 85.688C113.095 85.968 112.527 86.108 111.903 86.108ZM111.903 85.148C112.295 85.148 112.663 85.056 113.007 84.872C113.351 84.688 113.627 84.412 113.835 84.044C114.051 83.676 114.159 83.228 114.159 82.7C114.159 82.172 114.055 81.724 113.847 81.356C113.639 80.988 113.367 80.716 113.031 80.54C112.695 80.356 112.331 80.264 111.939 80.264C111.539 80.264 111.171 80.356 110.835 80.54C110.507 80.716 110.243 80.988 110.043 81.356C109.843 81.724 109.743 82.172 109.743 82.7C109.743 83.236 109.839 83.688 110.031 84.056C110.231 84.424 110.495 84.7 110.823 84.884C111.151 85.06 111.511 85.148 111.903 85.148ZM119.915 79.304C120.715 79.304 121.363 79.548 121.859 80.036C122.355 80.516 122.603 81.212 122.603 82.124V86H121.523V82.28C121.523 81.624 121.359 81.124 121.031 80.78C120.703 80.428 120.255 80.252 119.687 80.252C119.111 80.252 118.651 80.432 118.307 80.792C117.971 81.152 117.803 81.676 117.803 82.364V86H116.711V79.424H117.803V80.36C118.019 80.024 118.311 79.764 118.679 79.58C119.055 79.396 119.467 79.304 119.915 79.304ZM134.006 86L132.914 84.896C132.506 85.32 132.07 85.636 131.606 85.844C131.142 86.044 130.618 86.144 130.034 86.144C129.458 86.144 128.946 86.04 128.498 85.832C128.058 85.624 127.714 85.328 127.466 84.944C127.226 84.56 127.106 84.112 127.106 83.6C127.106 83.016 127.27 82.504 127.598 82.064C127.934 81.616 128.426 81.264 129.074 81.008C128.818 80.704 128.634 80.424 128.522 80.168C128.41 79.912 128.354 79.632 128.354 79.328C128.354 78.976 128.442 78.66 128.618 78.38C128.802 78.092 129.062 77.868 129.398 77.708C129.734 77.548 130.122 77.468 130.562 77.468C130.994 77.468 131.37 77.552 131.69 77.72C132.01 77.888 132.25 78.124 132.41 78.428C132.57 78.724 132.642 79.056 132.626 79.424H131.534C131.542 79.096 131.45 78.84 131.258 78.656C131.066 78.464 130.818 78.368 130.514 78.368C130.194 78.368 129.934 78.46 129.734 78.644C129.542 78.82 129.446 79.048 129.446 79.328C129.446 79.568 129.51 79.8 129.638 80.024C129.774 80.248 129.998 80.524 130.31 80.852L132.806 83.36L133.022 83.024L133.838 81.656H135.014L134.03 83.36C133.894 83.6 133.734 83.852 133.55 84.116L135.434 86H134.006ZM130.034 85.208C130.466 85.208 130.854 85.124 131.198 84.956C131.55 84.788 131.882 84.528 132.194 84.176L129.734 81.704C128.71 82.096 128.198 82.716 128.198 83.564C128.198 84.036 128.366 84.428 128.702 84.74C129.046 85.052 129.49 85.208 130.034 85.208ZM139.248 81.812C139.248 80.996 139.432 80.264 139.8 79.616C140.168 78.96 140.668 78.448 141.3 78.08C141.94 77.712 142.648 77.528 143.424 77.528C144.336 77.528 145.132 77.748 145.812 78.188C146.492 78.628 146.988 79.252 147.3 80.06H145.992C145.76 79.556 145.424 79.168 144.984 78.896C144.552 78.624 144.032 78.488 143.424 78.488C142.84 78.488 142.316 78.624 141.852 78.896C141.388 79.168 141.024 79.556 140.76 80.06C140.496 80.556 140.364 81.14 140.364 81.812C140.364 82.476 140.496 83.06 140.76 83.564C141.024 84.06 141.388 84.444 141.852 84.716C142.316 84.988 142.84 85.124 143.424 85.124C144.032 85.124 144.552 84.992 144.984 84.728C145.424 84.456 145.76 84.068 145.992 83.564H147.3C146.988 84.364 146.492 84.984 145.812 85.424C145.132 85.856 144.336 86.072 143.424 86.072C142.648 86.072 141.94 85.892 141.3 85.532C140.668 85.164 140.168 84.656 139.8 84.008C139.432 83.36 139.248 82.628 139.248 81.812ZM151.794 86.108C151.178 86.108 150.618 85.968 150.114 85.688C149.618 85.408 149.226 85.012 148.938 84.5C148.658 83.98 148.518 83.38 148.518 82.7C148.518 82.028 148.662 81.436 148.95 80.924C149.246 80.404 149.646 80.008 150.15 79.736C150.654 79.456 151.218 79.316 151.842 79.316C152.466 79.316 153.03 79.456 153.534 79.736C154.038 80.008 154.434 80.4 154.722 80.912C155.018 81.424 155.166 82.02 155.166 82.7C155.166 83.38 155.014 83.98 154.71 84.5C154.414 85.012 154.01 85.408 153.498 85.688C152.986 85.968 152.418 86.108 151.794 86.108ZM151.794 85.148C152.186 85.148 152.554 85.056 152.898 84.872C153.242 84.688 153.518 84.412 153.726 84.044C153.942 83.676 154.05 83.228 154.05 82.7C154.05 82.172 153.946 81.724 153.738 81.356C153.53 80.988 153.258 80.716 152.922 80.54C152.586 80.356 152.222 80.264 151.83 80.264C151.43 80.264 151.062 80.356 150.726 80.54C150.398 80.716 150.134 80.988 149.934 81.356C149.734 81.724 149.634 82.172 149.634 82.7C149.634 83.236 149.73 83.688 149.922 84.056C150.122 84.424 150.386 84.7 150.714 84.884C151.042 85.06 151.402 85.148 151.794 85.148Z" fill="white"/>
</svg>
