<svg width="40" height="41" viewBox="0 0 40 41" fill="none" xmlns="http://www.w3.org/2000/svg">
<rect x="0.579102" y="0.430664" width="39.1016" height="40.1391" rx="19.5508" fill="#FF648C" fill-opacity="0.15"/>
<path d="M18.1306 12.5488C19.5506 10.6448 21.6856 10.0888 23.6496 10.6238C25.7696 11.2008 27.6336 13.0218 28.2526 15.5578C28.2846 15.6878 28.3123 15.8178 28.3356 15.9478C27.442 15.6294 26.4701 15.6049 25.5616 15.8778C24.2746 14.9258 22.6806 14.7658 21.2636 15.2878C19.4886 15.9428 18.1026 17.6038 17.7816 19.6938C17.3716 22.3698 19.0016 24.7738 21.3066 26.8178L21.6946 27.1538C21.3816 27.1758 21.0636 27.1268 20.7596 27.0618C20.6034 27.0282 20.448 26.9908 20.2936 26.9498L19.7566 26.7998C14.9826 25.4568 11.7866 23.3558 10.8696 20.2158C10.1376 17.7098 10.8416 15.2008 12.3896 13.6408C13.8236 12.1958 15.9496 11.6098 18.1306 12.5488ZM19.7586 19.9968C20.1866 17.2048 23.4156 15.8288 25.0736 18.2248C25.0895 18.2471 25.1135 18.2622 25.1405 18.2669C25.1674 18.2715 25.1952 18.2654 25.2176 18.2498C27.5946 16.5658 30.1576 18.9628 29.6046 21.7328C29.2846 23.3395 27.7946 24.6728 25.1346 25.7328L24.6996 25.9028L24.4366 26.0108C24.2096 26.0998 23.9696 26.1708 23.7526 26.1328C23.5366 26.0948 23.3356 25.9448 23.1526 25.7848L22.8426 25.5048C20.5293 23.5141 19.5013 21.6781 19.7586 19.9968Z" fill="#FA90AB"/>
</svg>
