<svg width="89" height="88" viewBox="0 0 89 88" fill="none" xmlns="http://www.w3.org/2000/svg">
<g filter="url(#filter0_d_208_102)">
<rect x="4.0791" width="80" height="80" rx="40" fill="#9400EF"/>
<path d="M57.7863 55L46.3195 43.5346C45.4039 44.3146 44.351 44.9182 43.1608 45.3454C41.9705 45.7727 40.7742 45.9863 39.5717 45.9863C36.6394 45.9863 34.1575 44.9713 32.1262 42.9414C30.0948 40.9115 29.0791 38.4306 29.0791 35.4986C29.0791 32.5667 30.0936 30.0845 32.1225 28.0522C34.1514 26.0198 36.6321 25.0024 39.5644 25C42.4967 24.9976 44.9797 26.0131 47.0135 28.0467C49.0474 30.0803 50.0643 32.5624 50.0643 35.4931C50.0643 36.765 49.839 37.996 49.3886 39.1861C48.9381 40.3763 48.346 41.3943 47.6123 42.2402L59.0791 53.7037L57.7863 55ZM39.5735 44.1535C42.0029 44.1535 44.0538 43.3174 45.7262 41.6451C47.3987 39.9728 48.2349 37.9216 48.2349 35.4913C48.2349 33.061 47.3987 31.0104 45.7262 29.3393C44.0538 27.6683 42.0029 26.8322 39.5735 26.8309C37.1442 26.8297 35.0927 27.6659 33.419 29.3393C31.7453 31.0128 30.909 33.0635 30.9103 35.4913C30.9115 37.9191 31.7477 39.9698 33.419 41.6433C35.0902 43.3168 37.1411 44.1529 39.5717 44.1517" fill="white"/>
</g>
<defs>
<filter id="filter0_d_208_102" x="0.0791016" y="0" width="88" height="88" filterUnits="userSpaceOnUse" color-interpolation-filters="sRGB">
<feFlood flood-opacity="0" result="BackgroundImageFix"/>
<feColorMatrix in="SourceAlpha" type="matrix" values="0 0 0 0 0 0 0 0 0 0 0 0 0 0 0 0 0 0 127 0" result="hardAlpha"/>
<feOffset dy="4"/>
<feGaussianBlur stdDeviation="2"/>
<feComposite in2="hardAlpha" operator="out"/>
<feColorMatrix type="matrix" values="0 0 0 0 0 0 0 0 0 0 0 0 0 0 0 0 0 0 0.25 0"/>
<feBlend mode="normal" in2="BackgroundImageFix" result="effect1_dropShadow_208_102"/>
<feBlend mode="normal" in="SourceGraphic" in2="effect1_dropShadow_208_102" result="shape"/>
</filter>
</defs>
</svg>
