<svg xmlns="http://www.w3.org/2000/svg" width="21" height="21" viewBox="0 0 21 21" fill="none">
  <path d="M9.26329 13.3317C9.18889 13.0433 9.03857 12.7801 8.82797 12.5695C8.61737 12.3589 8.35418 12.2086 8.06579 12.1342L2.95329 10.8159C2.86606 10.7911 2.78929 10.7386 2.73463 10.6662C2.67997 10.5939 2.65039 10.5057 2.65039 10.415C2.65039 10.3244 2.67997 10.2362 2.73463 10.1638C2.78929 10.0915 2.86606 10.039 2.95329 10.0142L8.06579 8.69504C8.35408 8.62071 8.6172 8.47052 8.82779 8.26007C9.03838 8.04962 9.18876 7.78661 9.26329 7.49837L10.5816 2.38587C10.6061 2.2983 10.6586 2.22116 10.7311 2.1662C10.8035 2.11124 10.8919 2.0815 10.9829 2.0815C11.0738 2.0815 11.1622 2.11124 11.2347 2.1662C11.3071 2.22116 11.3596 2.2983 11.3841 2.38587L12.7016 7.49837C12.776 7.78676 12.9263 8.04995 13.1369 8.26055C13.3475 8.47115 13.6107 8.62147 13.8991 8.69587L19.0116 10.0134C19.0995 10.0376 19.1771 10.09 19.2323 10.1626C19.2876 10.2352 19.3175 10.3238 19.3175 10.415C19.3175 10.5062 19.2876 10.5949 19.2323 10.6675C19.1771 10.74 19.0995 10.7925 19.0116 10.8167L13.8991 12.1342C13.6107 12.2086 13.3475 12.3589 13.1369 12.5695C12.9263 12.7801 12.776 13.0433 12.7016 13.3317L11.3833 18.4442C11.3588 18.5318 11.3063 18.6089 11.2339 18.6639C11.1614 18.7188 11.073 18.7486 10.982 18.7486C10.8911 18.7486 10.8027 18.7188 10.7302 18.6639C10.6578 18.6089 10.6053 18.5318 10.5808 18.4442L9.26329 13.3317Z" stroke="#E10CFF" stroke-width="1.66667" stroke-linecap="round" stroke-linejoin="round"/>
  <path d="M17.6494 2.91504V6.24837" stroke="#E10CFF" stroke-width="1.66667" stroke-linecap="round" stroke-linejoin="round"/>
  <path d="M19.3158 4.58171H15.9824" stroke="#E10CFF" stroke-width="1.66667" stroke-linecap="round" stroke-linejoin="round"/>
  <path d="M4.31543 14.5817V16.2484" stroke="#E10CFF" stroke-width="1.66667" stroke-linecap="round" stroke-linejoin="round"/>
  <path d="M5.14909 15.415H3.48242" stroke="#E10CFF" stroke-width="1.66667" stroke-linecap="round" stroke-linejoin="round"/>
</svg>