<svg width="41" height="37" viewBox="0 0 41 37" fill="none" xmlns="http://www.w3.org/2000/svg">
<rect x="0.579102" y="0.5" width="40.0003" height="36" rx="18" fill="#9400EF" fill-opacity="0.15"/>
<mask id="mask0_208_19" style="mask-type:luminance" maskUnits="userSpaceOnUse" x="10" y="10" width="21" height="17">
<path d="M22.5794 10.5H18.5794C14.8084 10.5 12.9224 10.5 11.7514 11.672C10.9074 12.515 10.6714 13.729 10.6054 15.75H30.5534C30.4874 13.729 30.2514 12.515 29.4074 11.672C28.2364 10.5 26.3504 10.5 22.5794 10.5ZM18.5794 26.5H22.5794C26.3504 26.5 28.2364 26.5 29.4074 25.328C30.5784 24.156 30.5794 22.271 30.5794 18.5C30.5794 18.0587 30.5787 17.642 30.5774 17.25H10.5814C10.5794 17.642 10.5787 18.0587 10.5794 18.5C10.5794 22.271 10.5794 24.157 11.7514 25.328C12.9234 26.499 14.8084 26.5 18.5794 26.5Z" fill="white"/>
<path fill-rule="evenodd" clip-rule="evenodd" d="M13.8293 22.5C13.8293 22.3011 13.9084 22.1103 14.049 21.9697C14.1897 21.829 14.3804 21.75 14.5793 21.75H18.5793C18.7783 21.75 18.969 21.829 19.1097 21.9697C19.2503 22.1103 19.3293 22.3011 19.3293 22.5C19.3293 22.6989 19.2503 22.8897 19.1097 23.0303C18.969 23.171 18.7783 23.25 18.5793 23.25H14.5793C14.3804 23.25 14.1897 23.171 14.049 23.0303C13.9084 22.8897 13.8293 22.6989 13.8293 22.5ZM20.3293 22.5C20.3293 22.3011 20.4084 22.1103 20.549 21.9697C20.6897 21.829 20.8804 21.75 21.0793 21.75H22.5793C22.7783 21.75 22.969 21.829 23.1097 21.9697C23.2503 22.1103 23.3293 22.3011 23.3293 22.5C23.3293 22.6989 23.2503 22.8897 23.1097 23.0303C22.969 23.171 22.7783 23.25 22.5793 23.25H21.0793C20.8804 23.25 20.6897 23.171 20.549 23.0303C20.4084 22.8897 20.3293 22.6989 20.3293 22.5Z" fill="black"/>
</mask>
<g mask="url(#mask0_208_19)">
<path d="M8.57935 6.5H32.5793V30.5H8.57935V6.5Z" fill="#9400EF"/>
</g>
</svg>
