<svg width="1071" height="337" viewBox="0 0 1071 337" fill="none" xmlns="http://www.w3.org/2000/svg">
<g clip-path="url(#clip0_72_302)">
<rect x="0.0791016" width="1070" height="337" rx="20" fill="url(#paint0_linear_72_302)"/>
<path d="M94.7594 70.272C93.8568 60.6269 105.824 55.4617 112.223 62.7342L135.088 88.7184C137.95 91.9708 142.581 93.0104 146.558 91.2936L178.337 77.5773C187.231 73.7384 195.841 83.5235 190.902 91.857L173.255 121.633C171.046 125.359 171.489 130.085 174.351 133.337L197.216 159.321C203.615 166.594 196.97 177.807 187.518 175.685L153.746 168.103C149.519 167.154 145.162 169.034 142.953 172.761L125.306 202.537C120.367 210.87 107.65 208.015 106.747 198.37L103.522 163.909C103.118 159.595 99.9832 156.032 95.7562 155.083L61.9848 147.501C52.5329 145.379 51.3185 132.402 60.2126 128.563L91.9907 114.846C95.9683 113.13 98.388 109.047 97.9844 104.733L94.7594 70.272Z" fill="white" fill-opacity="0.15"/>
<path d="M147.441 274.441L149.911 282.042H157.903L151.437 286.74L153.907 294.341L147.441 289.643L140.976 294.341L143.445 286.74L136.98 282.042H144.972L147.441 274.441Z" fill="white" fill-opacity="0.1"/>
<path d="M106.441 270.441L107.339 273.205H110.246L107.894 274.914L108.793 277.677L106.441 275.969L104.09 277.677L104.988 274.914L102.637 273.205H105.543L106.441 270.441Z" fill="white" fill-opacity="0.15"/>
<path d="M163.441 180.441L165.462 186.66H172.001L166.711 190.504L168.731 196.723L163.441 192.879L158.151 196.723L160.172 190.504L154.882 186.66H161.421L163.441 180.441Z" fill="white" fill-opacity="0.08"/>
<path d="M210.393 91.9911L215.554 96.0057L220.967 92.3375L218.744 98.4868L223.905 102.501L217.37 102.287L215.147 108.437L213.331 102.155L206.795 101.941L212.209 98.2728L210.393 91.9911Z" fill="white" fill-opacity="0.15"/>
<path d="M200.941 131.441L201.727 133.86H204.27L202.213 135.355L202.999 137.773L200.941 136.278L198.884 137.773L199.67 135.355L197.613 133.86H200.156L200.941 131.441Z" fill="white" fill-opacity="0.15"/>
<path d="M230.941 173.441L231.727 175.86H234.27L232.213 177.355L232.999 179.773L230.941 178.278L228.884 179.773L229.67 177.355L227.613 175.86H230.156L230.941 173.441Z" fill="white" fill-opacity="0.15"/>
<path d="M218.941 206.441L219.727 208.86H222.27L220.213 210.355L220.999 212.773L218.941 211.278L216.884 212.773L217.67 210.355L215.613 208.86H218.156L218.941 206.441Z" fill="white" fill-opacity="0.15"/>
<path d="M91.5682 217.245L91.0059 225.217L98.4142 228.215L90.6585 230.144L90.0963 238.116L85.8652 231.336L78.1095 233.265L83.2502 227.146L79.0191 220.366L86.4274 223.364L91.5682 217.245Z" fill="white" fill-opacity="0.15"/>
<path d="M105.646 313.092L102.134 320.271L107.877 325.829L99.9639 324.708L96.4519 331.887L95.0735 324.015L87.1606 322.893L94.2215 319.149L92.8431 311.277L98.5854 316.836L105.646 313.092Z" fill="white" fill-opacity="0.15"/>
<path d="M1059.33 61.8482C1062.09 52.1739 1075.8 52.1739 1078.56 61.8482L1090.63 104.168C1092.12 109.357 1097.45 112.436 1102.68 111.123L1145.37 100.423C1155.13 97.9769 1161.98 109.85 1154.99 117.079L1124.38 148.698C1120.62 152.575 1120.62 158.732 1124.38 162.609L1154.99 194.228C1161.98 201.456 1155.13 213.33 1145.37 210.884L1102.68 200.183C1097.45 198.871 1092.12 201.949 1090.63 207.139L1078.56 249.458C1075.8 259.133 1062.09 259.133 1059.33 249.458L1047.25 207.139C1045.77 201.949 1040.44 198.871 1035.2 200.183L992.512 210.884C982.753 213.33 975.898 201.456 982.896 194.228L1013.51 162.609C1017.26 158.732 1017.26 152.575 1013.51 148.698L982.896 117.079C975.898 109.85 982.753 97.9769 992.512 100.423L1035.2 111.123C1040.44 112.436 1045.77 109.357 1047.25 104.168L1059.33 61.8482Z" fill="white" fill-opacity="0.25"/>
<path d="M1029.01 258.21L1023.06 263.547L1026.3 270.854L1019.39 266.846L1013.44 272.183L1015.11 264.369L1008.2 260.36L1016.15 259.539L1017.82 251.725L1021.06 259.032L1029.01 258.21Z" fill="white" fill-opacity="0.25"/>
<path d="M1044.01 60.2103L1038.06 65.5474L1041.3 72.8542L1034.39 68.8459L1028.44 74.183L1030.11 66.3686L1023.2 62.3603L1031.15 61.5391L1032.82 53.7247L1036.06 61.0315L1044.01 60.2103Z" fill="white" fill-opacity="0.25"/>
<path d="M992.011 149.21L986.063 154.547L989.3 161.854L982.386 157.846L976.438 163.183L978.113 155.369L971.199 151.36L979.149 150.539L980.824 142.725L984.062 150.032L992.011 149.21Z" fill="white" fill-opacity="0.25"/>
<path d="M946.229 160.978L943.375 163.539L944.929 167.044L941.611 165.121L938.758 167.682L939.561 163.933L936.244 162.01L940.058 161.616L940.862 157.867L942.415 161.372L946.229 160.978Z" fill="white" fill-opacity="0.25"/>
<path d="M963.653 206.888L961.398 208.911L962.625 211.681L960.004 210.161L957.749 212.185L958.384 209.222L955.763 207.703L958.777 207.391L959.412 204.429L960.64 207.199L963.653 206.888Z" fill="white" fill-opacity="0.25"/>
<path d="M1003.59 35.2619L997.979 40.2968L1001.03 47.1899L994.511 43.4086L988.899 48.4435L990.48 41.0716L983.957 37.2902L991.457 36.5155L993.037 29.1436L996.092 36.0367L1003.59 35.2619Z" fill="white" fill-opacity="0.25"/>
</g>
<defs>
<linearGradient id="paint0_linear_72_302" x1="0.0791016" y1="0" x2="1045.45" y2="401.168" gradientUnits="userSpaceOnUse">
<stop stop-color="#FF648C"/>
<stop offset="1" stop-color="#E10CFF"/>
</linearGradient>
<clipPath id="clip0_72_302">
<rect x="0.0791016" width="1070" height="337" rx="20" fill="white"/>
</clipPath>
</defs>
</svg>
