<svg width="159" height="258" viewBox="0 0 159 258" fill="none" xmlns="http://www.w3.org/2000/svg">
<path d="M124.884 36.1948C127.645 26.5206 141.355 26.5206 144.116 36.1949L156.194 78.5145C157.675 83.7041 163.006 86.7823 168.241 85.4701L210.93 74.7697C220.688 72.3236 227.543 84.1971 220.546 91.4252L189.935 123.044C186.181 126.922 186.181 133.078 189.935 136.956L220.546 168.575C227.543 175.803 220.688 187.676 210.93 185.23L168.241 174.53C163.006 173.218 157.675 176.296 156.194 181.486L144.116 223.805C141.355 233.479 127.645 233.479 124.884 223.805L112.806 181.486C111.325 176.296 105.994 173.218 100.759 174.53L58.0704 185.23C48.3118 187.676 41.4566 175.803 48.4543 168.575L79.0655 136.956C82.8193 133.078 82.8193 126.922 79.0655 123.044L48.4543 91.4252C41.4566 84.197 48.3118 72.3236 58.0704 74.7697L100.759 85.4701C105.994 86.7823 111.325 83.704 112.806 78.5145L124.884 36.1948Z" fill="white" fill-opacity="0.5"/>
<path d="M94.57 232.557L88.6213 237.894L91.859 245.201L84.9448 241.193L78.9961 246.53L80.6717 238.715L73.7575 234.707L81.7072 233.886L83.3827 226.071L86.6203 233.378L94.57 232.557Z" fill="white" fill-opacity="0.5"/>
<path d="M109.57 34.5569L103.621 39.894L106.859 47.2008L99.9448 43.1926L93.9961 48.5297L95.6717 40.7153L88.7575 36.707L96.7072 35.8858L98.3827 28.0714L101.62 35.3782L109.57 34.5569Z" fill="white" fill-opacity="0.5"/>
<path d="M57.57 123.557L51.6213 128.894L54.859 136.201L47.9448 132.193L41.9961 137.53L43.6717 129.715L36.7575 125.707L44.7072 124.886L46.3827 117.071L49.6203 124.378L57.57 123.557Z" fill="white" fill-opacity="0.5"/>
<path d="M11.7878 135.325L8.93388 137.885L10.4872 141.391L7.17006 139.468L4.31613 142.028L5.11998 138.279L1.80287 136.356L5.61678 135.962L6.42062 132.213L7.9739 135.719L11.7878 135.325Z" fill="white" fill-opacity="0.5"/>
<path d="M29.2118 181.234L26.9567 183.258L28.184 186.028L25.563 184.508L23.3078 186.531L23.943 183.569L21.3219 182.049L24.3356 181.738L24.9708 178.776L26.1981 181.546L29.2118 181.234Z" fill="white" fill-opacity="0.5"/>
<path d="M69.1497 9.60859L63.5378 14.6435L66.5922 21.5366L60.0695 17.7552L54.4577 22.7901L56.0383 15.4182L49.5157 11.6369L57.0152 10.8622L58.5959 3.49027L61.6502 10.3833L69.1497 9.60859Z" fill="white" fill-opacity="0.5"/>
</svg>
