<svg width="193" height="266" viewBox="0 0 193 266" fill="none" xmlns="http://www.w3.org/2000/svg">
<path d="M24.318 -0.669432C23.4154 -10.3145 35.3823 -15.4798 41.7818 -8.20725L64.6468 17.777C67.5087 21.0294 72.1394 22.069 76.1169 20.3522L107.895 6.63589C116.789 2.79695 125.4 12.582 120.461 20.9156L102.814 50.6911C100.605 54.418 101.047 59.1433 103.909 62.3957L126.774 88.38C133.174 95.6525 126.528 106.865 117.076 104.743L83.3049 97.1611C79.0779 96.2121 74.7205 98.0929 72.5117 101.82L54.8648 131.595C49.9258 139.929 37.2083 137.074 36.3057 127.429L33.0807 92.9671C32.677 88.6537 29.5418 85.0908 25.3148 84.1417L-8.45657 76.5597C-17.9085 74.4376 -19.1229 61.4603 -10.2288 57.6213L21.5493 43.905C25.5269 42.1882 27.9466 38.1054 27.543 33.792L24.318 -0.669432Z" fill="white" fill-opacity="0.15"/>
<path d="M77 203.5L79.4697 211.101H87.4616L80.996 215.798L83.4656 223.399L77 218.702L70.5344 223.399L73.004 215.798L66.5384 211.101H74.5303L77 203.5Z" fill="white" fill-opacity="0.1"/>
<path d="M36 199.5L36.8981 202.264H39.8042L37.4531 203.972L38.3511 206.736L36 205.028L33.6489 206.736L34.5469 203.972L32.1958 202.264H35.1019L36 199.5Z" fill="white" fill-opacity="0.15"/>
<path d="M93 109.5L95.0206 115.719H101.56L96.2694 119.562L98.2901 125.781L93 121.938L87.7099 125.781L89.7306 119.562L84.4405 115.719H90.9794L93 109.5Z" fill="white" fill-opacity="0.08"/>
<path d="M139.951 21.0497L145.113 25.0643L150.526 21.396L148.303 27.5454L153.464 31.56L146.929 31.3459L144.705 37.4953L142.889 31.2137L136.354 30.9996L141.767 27.3314L139.951 21.0497Z" fill="white" fill-opacity="0.15"/>
<path d="M130.5 60.5L131.286 62.9184H133.829L131.771 64.4131L132.557 66.8316L130.5 65.3369L128.443 66.8316L129.229 64.4131L127.171 62.9184H129.714L130.5 60.5Z" fill="white" fill-opacity="0.15"/>
<path d="M160.5 102.5L161.286 104.918H163.829L161.771 106.413L162.557 108.832L160.5 107.337L158.443 108.832L159.229 106.413L157.171 104.918H159.714L160.5 102.5Z" fill="white" fill-opacity="0.15"/>
<path d="M148.5 135.5L149.286 137.918H151.829L149.771 139.413L150.557 141.832L148.5 140.337L146.443 141.832L147.229 139.413L145.171 137.918H147.714L148.5 135.5Z" fill="white" fill-opacity="0.15"/>
<path d="M21.1268 146.303L20.5645 154.276L27.9728 157.274L20.2171 159.203L19.6549 167.175L15.4238 160.395L7.66806 162.324L12.8088 156.204L8.57774 149.424L15.986 152.423L21.1268 146.303Z" fill="white" fill-opacity="0.15"/>
<path d="M35.2049 242.151L31.693 249.33L37.4353 254.888L29.5225 253.766L26.0105 260.945L24.6321 253.073L16.7192 251.952L23.7801 248.208L22.4017 240.336L28.144 245.894L35.2049 242.151Z" fill="white" fill-opacity="0.15"/>
</svg>
